<svg xmlns="http://www.w3.org/2000/svg" xmlns:xlink="http://www.w3.org/1999/xlink" viewBox="0 0 20 20"><g fill="none"><path d="M14 3H6a1 1 0 0 0-1 1v11h4.022c.031.343.094.678.185 1H5a1 1 0 0 0 1 1h3.6c.183.358.404.693.657 1H6a2 2 0 0 1-2-2V4a2 2 0 0 1 2-2h8a2 2 0 0 1 2 2v5.207a5.48 5.48 0 0 0-1-.185V4a1 1 0 0 0-1-1zM6 5v1a1 1 0 0 0 1 1h6a1 1 0 0 0 1-1V5a1 1 0 0 0-1-1H7a1 1 0 0 0-1 1zm1 0h6v1H7V5zm12 9.5a4.5 4.5 0 1 1-9 0a4.5 4.5 0 0 1 9 0zm-4-2a.5.5 0 0 0-1 0V14h-1.5a.5.5 0 0 0 0 1H14v1.5a.5.5 0 0 0 1 0V15h1.5a.5.5 0 0 0 0-1H15v-1.5z" fill="currentColor"></path></g></svg>
